<?xml version="1.0" encoding="UTF-8" standalone="no"?>
<!-- Created with Inkscape (http://www.inkscape.org/) -->

<svg
   version="1.1"
   id="svg943"
   width="70"
   height="70"
   viewBox="0 0 70 70"
   sodipodi:docname="logo-uerj.svg"
   inkscape:version="1.2.2 (732a01da63, 2022-12-09)"
   xml:space="preserve"
   xmlns:inkscape="http://www.inkscape.org/namespaces/inkscape"
   xmlns:sodipodi="http://sodipodi.sourceforge.net/DTD/sodipodi-0.dtd"
   xmlns="http://www.w3.org/2000/svg"
   xmlns:svg="http://www.w3.org/2000/svg"
   xmlns:rdf="http://www.w3.org/1999/02/22-rdf-syntax-ns#"
   xmlns:cc="http://creativecommons.org/ns#"
   xmlns:dc="http://purl.org/dc/elements/1.1/"><g
     id="g3226"
     clip-path="url(#clipPath3229)"
     transform="matrix(0.79870992,0,0,0.84412071,969.4301,-23.097169)"><g
       id="g2017" /></g><metadata
     id="metadata949"><rdf:RDF><cc:Work
         rdf:about=""><dc:format>image/svg+xml</dc:format><dc:type
           rdf:resource="http://purl.org/dc/dcmitype/StillImage" /></cc:Work></rdf:RDF></metadata><defs
     id="defs947"><clipPath
       clipPathUnits="userSpaceOnUse"
       id="clipPath2073"><g
         id="g2077"><path
           d="M -1158.5255,-588.04314 H -36.005528 V 205.65817 H -1158.5255 Z"
           id="path2075"
           style="stroke-width:1.33333" /></g></clipPath><clipPath
       clipPathUnits="userSpaceOnUse"
       id="clipPath2097"><g
         id="g2101"><path
           d="M -1158.5255,-588.04314 H -36.005528 V 205.65817 H -1158.5255 Z"
           id="path2099"
           style="stroke-width:1.33333" /></g></clipPath><clipPath
       clipPathUnits="userSpaceOnUse"
       id="clipPath2133"><g
         id="g2137"><path
           d="M -1158.5255,-588.04314 H -36.005528 V 205.65817 H -1158.5255 Z"
           id="path2135"
           style="stroke-width:1.33333" /></g></clipPath><clipPath
       clipPathUnits="userSpaceOnUse"
       id="clipPath2139"><g
         id="g2143"><path
           d="M -1158.5255,-588.04314 H -36.005528 V 205.65817 H -1158.5255 Z"
           id="path2141"
           style="stroke-width:1.33333" /></g></clipPath><clipPath
       clipPathUnits="userSpaceOnUse"
       id="clipPath2145"><g
         id="g2149"><path
           d="M -1158.5255,-588.04314 H -36.005528 V 205.65817 H -1158.5255 Z"
           id="path2147"
           style="stroke-width:1.33333" /></g></clipPath><clipPath
       clipPathUnits="userSpaceOnUse"
       id="clipPath2175"><g
         id="g2179"><path
           d="M -1158.5255,-588.04314 H -36.005528 V 205.65817 H -1158.5255 Z"
           id="path2177"
           style="stroke-width:1.33333" /></g></clipPath><clipPath
       clipPathUnits="userSpaceOnUse"
       id="clipPath2494"><g
         id="g2500"><g
           id="g2498"><path
             d="M -1158.5255,-588.04314 H -36.005528 V 205.65817 H -1158.5255 Z"
             id="path2496"
             style="stroke-width:1.33333" /></g></g></clipPath><clipPath
       clipPathUnits="userSpaceOnUse"
       id="clipPath2509"><g
         id="g2515"><g
           id="g2513"><path
             d="M -1158.5255,-588.04314 H -36.005528 V 205.65817 H -1158.5255 Z"
             id="path2511"
             style="stroke-width:1.33333" /></g></g></clipPath><clipPath
       clipPathUnits="userSpaceOnUse"
       id="clipPath2524"><g
         id="g2530"><g
           id="g2528"><path
             d="M -1158.5255,-588.04314 H -36.005528 V 205.65817 H -1158.5255 Z"
             id="path2526"
             style="stroke-width:1.33333" /></g></g></clipPath><clipPath
       clipPathUnits="userSpaceOnUse"
       id="clipPath2539"><g
         id="g2545"><g
           id="g2543"><path
             d="M -1158.5255,-588.04314 H -36.005528 V 205.65817 H -1158.5255 Z"
             id="path2541"
             style="stroke-width:1.33333" /></g></g></clipPath><clipPath
       clipPathUnits="userSpaceOnUse"
       id="clipPath2554"><g
         id="g2560"><g
           id="g2558"><path
             d="M -1158.5255,-588.04314 H -36.005528 V 205.65817 H -1158.5255 Z"
             id="path2556"
             style="stroke-width:1.33333" /></g></g></clipPath><clipPath
       clipPathUnits="userSpaceOnUse"
       id="clipPath2569"><g
         id="g2575"><g
           id="g2573"><path
             d="M -1158.5255,-588.04314 H -36.005528 V 205.65817 H -1158.5255 Z"
             id="path2571"
             style="stroke-width:1.33333" /></g></g></clipPath><clipPath
       clipPathUnits="userSpaceOnUse"
       id="clipPath2584"><g
         id="g2590"><g
           id="g2588"><path
             d="M -1158.5255,-588.04314 H -36.005528 V 205.65817 H -1158.5255 Z"
             id="path2586"
             style="stroke-width:1.33333" /></g></g></clipPath><clipPath
       clipPathUnits="userSpaceOnUse"
       id="clipPath2599"><g
         id="g2605"><g
           id="g2603"><path
             d="M -1158.5255,-588.04314 H -36.005528 V 205.65817 H -1158.5255 Z"
             id="path2601"
             style="stroke-width:1.33333" /></g></g></clipPath><clipPath
       clipPathUnits="userSpaceOnUse"
       id="clipPath2614"><g
         id="g2620"><g
           id="g2618"><path
             d="M -1158.5255,-588.04314 H -36.005528 V 205.65817 H -1158.5255 Z"
             id="path2616"
             style="stroke-width:1.33333" /></g></g></clipPath><clipPath
       clipPathUnits="userSpaceOnUse"
       id="clipPath2629"><g
         id="g2635"><g
           id="g2633"><path
             d="M -1158.5255,-588.04314 H -36.005528 V 205.65817 H -1158.5255 Z"
             id="path2631"
             style="stroke-width:1.33333" /></g></g></clipPath><clipPath
       clipPathUnits="userSpaceOnUse"
       id="clipPath2644"><g
         id="g2650"><g
           id="g2648"><path
             d="M -1158.5255,-588.04314 H -36.005528 V 205.65817 H -1158.5255 Z"
             id="path2646"
             style="stroke-width:1.33333" /></g></g></clipPath><clipPath
       clipPathUnits="userSpaceOnUse"
       id="clipPath2659"><g
         id="g2665"><g
           id="g2663"><path
             d="M -1158.5255,-588.04314 H -36.005528 V 205.65817 H -1158.5255 Z"
             id="path2661"
             style="stroke-width:1.33333" /></g></g></clipPath><clipPath
       clipPathUnits="userSpaceOnUse"
       id="clipPath2674"><g
         id="g2680"><g
           id="g2678"><path
             d="M -1158.5255,-588.04314 H -36.005528 V 205.65817 H -1158.5255 Z"
             id="path2676"
             style="stroke-width:1.33333" /></g></g></clipPath><clipPath
       clipPathUnits="userSpaceOnUse"
       id="clipPath2689"><g
         id="g2695"><g
           id="g2693"><path
             d="M -1158.5255,-588.04314 H -36.005528 V 205.65817 H -1158.5255 Z"
             id="path2691"
             style="stroke-width:1.33333" /></g></g></clipPath><clipPath
       clipPathUnits="userSpaceOnUse"
       id="clipPath2704"><g
         id="g2710"><g
           id="g2708"><path
             d="M -1158.5255,-588.04314 H -36.005528 V 205.65817 H -1158.5255 Z"
             id="path2706"
             style="stroke-width:1.33333" /></g></g></clipPath><clipPath
       clipPathUnits="userSpaceOnUse"
       id="clipPath2719"><g
         id="g2725"><g
           id="g2723"><path
             d="M -1158.5255,-588.04314 H -36.005528 V 205.65817 H -1158.5255 Z"
             id="path2721"
             style="stroke-width:1.33333" /></g></g></clipPath><clipPath
       clipPathUnits="userSpaceOnUse"
       id="clipPath2734"><g
         id="g2740"><g
           id="g2738"><path
             d="M -1158.5255,-588.04314 H -36.005528 V 205.65817 H -1158.5255 Z"
             id="path2736"
             style="stroke-width:1.33333" /></g></g></clipPath><clipPath
       clipPathUnits="userSpaceOnUse"
       id="clipPath2749"><g
         id="g2755"><g
           id="g2753"><path
             d="M -1158.5255,-588.04314 H -36.005528 V 205.65817 H -1158.5255 Z"
             id="path2751"
             style="stroke-width:1.33333" /></g></g></clipPath><clipPath
       clipPathUnits="userSpaceOnUse"
       id="clipPath2764"><g
         id="g2770"><g
           id="g2768"><path
             d="M -1158.5255,-588.04314 H -36.005528 V 205.65817 H -1158.5255 Z"
             id="path2766"
             style="stroke-width:1.33333" /></g></g></clipPath><clipPath
       clipPathUnits="userSpaceOnUse"
       id="clipPath2779"><g
         id="g2785"><g
           id="g2783"><path
             d="M -1158.5255,-588.04314 H -36.005528 V 205.65817 H -1158.5255 Z"
             id="path2781"
             style="stroke-width:1.33333" /></g></g></clipPath><clipPath
       clipPathUnits="userSpaceOnUse"
       id="clipPath2794"><g
         id="g2800"><g
           id="g2798"><path
             d="M -1158.5255,-588.04314 H -36.005528 V 205.65817 H -1158.5255 Z"
             id="path2796"
             style="stroke-width:1.33333" /></g></g></clipPath><clipPath
       clipPathUnits="userSpaceOnUse"
       id="clipPath2809"><g
         id="g2815"><g
           id="g2813"><path
             d="M -1158.5255,-588.04314 H -36.005528 V 205.65817 H -1158.5255 Z"
             id="path2811"
             style="stroke-width:1.33333" /></g></g></clipPath><clipPath
       clipPathUnits="userSpaceOnUse"
       id="clipPath2824"><g
         id="g2830"><g
           id="g2828"><path
             d="M -1158.5255,-588.04314 H -36.005528 V 205.65817 H -1158.5255 Z"
             id="path2826"
             style="stroke-width:1.33333" /></g></g></clipPath><clipPath
       clipPathUnits="userSpaceOnUse"
       id="clipPath2839"><g
         id="g2845"><g
           id="g2843"><path
             d="M -1158.5255,-588.04314 H -36.005528 V 205.65817 H -1158.5255 Z"
             id="path2841"
             style="stroke-width:1.33333" /></g></g></clipPath><clipPath
       clipPathUnits="userSpaceOnUse"
       id="clipPath2854"><g
         id="g2860"><g
           id="g2858"><path
             d="M -1158.5255,-588.04314 H -36.005528 V 205.65817 H -1158.5255 Z"
             id="path2856"
             style="stroke-width:1.33333" /></g></g></clipPath><clipPath
       clipPathUnits="userSpaceOnUse"
       id="clipPath2869"><g
         id="g2875"><g
           id="g2873"><path
             d="M -1158.5255,-588.04314 H -36.005528 V 205.65817 H -1158.5255 Z"
             id="path2871"
             style="stroke-width:1.33333" /></g></g></clipPath><clipPath
       clipPathUnits="userSpaceOnUse"
       id="clipPath2884"><g
         id="g2890"><g
           id="g2888"><path
             d="M -1158.5255,-588.04314 H -36.005528 V 205.65817 H -1158.5255 Z"
             id="path2886"
             style="stroke-width:1.33333" /></g></g></clipPath><clipPath
       clipPathUnits="userSpaceOnUse"
       id="clipPath2899"><g
         id="g2905"><g
           id="g2903"><path
             d="M -1158.5255,-588.04314 H -36.005528 V 205.65817 H -1158.5255 Z"
             id="path2901"
             style="stroke-width:1.33333" /></g></g></clipPath><clipPath
       clipPathUnits="userSpaceOnUse"
       id="clipPath2914"><g
         id="g2920"><g
           id="g2918"><path
             d="M -1158.5255,-588.04314 H -36.005528 V 205.65817 H -1158.5255 Z"
             id="path2916"
             style="stroke-width:1.33333" /></g></g></clipPath><clipPath
       clipPathUnits="userSpaceOnUse"
       id="clipPath2929"><g
         id="g2935"><g
           id="g2933"><path
             d="M -1158.5255,-588.04314 H -36.005528 V 205.65817 H -1158.5255 Z"
             id="path2931"
             style="stroke-width:1.33333" /></g></g></clipPath><clipPath
       clipPathUnits="userSpaceOnUse"
       id="clipPath2944"><g
         id="g2950"><g
           id="g2948"><path
             d="M -1158.5255,-588.04314 H -36.005528 V 205.65817 H -1158.5255 Z"
             id="path2946"
             style="stroke-width:1.33333" /></g></g></clipPath><clipPath
       clipPathUnits="userSpaceOnUse"
       id="clipPath2959"><g
         id="g2965"><g
           id="g2963"><path
             d="M -1158.5255,-588.04314 H -36.005528 V 205.65817 H -1158.5255 Z"
             id="path2961"
             style="stroke-width:1.33333" /></g></g></clipPath><clipPath
       clipPathUnits="userSpaceOnUse"
       id="clipPath2974"><g
         id="g2980"><g
           id="g2978"><path
             d="M -1158.5255,-588.04314 H -36.005528 V 205.65817 H -1158.5255 Z"
             id="path2976"
             style="stroke-width:1.33333" /></g></g></clipPath><clipPath
       clipPathUnits="userSpaceOnUse"
       id="clipPath2989"><g
         id="g2995"><g
           id="g2993"><path
             d="M -1158.5255,-588.04314 H -36.005528 V 205.65817 H -1158.5255 Z"
             id="path2991"
             style="stroke-width:1.33333" /></g></g></clipPath><clipPath
       clipPathUnits="userSpaceOnUse"
       id="clipPath3004"><g
         id="g3010"><g
           id="g3008"><path
             d="M -1158.5255,-588.04314 H -36.005528 V 205.65817 H -1158.5255 Z"
             id="path3006"
             style="stroke-width:1.33333" /></g></g></clipPath><clipPath
       clipPathUnits="userSpaceOnUse"
       id="clipPath3019"><g
         id="g3025"><g
           id="g3023"><path
             d="M -1158.5255,-588.04314 H -36.005528 V 205.65817 H -1158.5255 Z"
             id="path3021"
             style="stroke-width:1.33333" /></g></g></clipPath><clipPath
       clipPathUnits="userSpaceOnUse"
       id="clipPath3034"><g
         id="g3040"><g
           id="g3038"><path
             d="M -1158.5255,-588.04314 H -36.005528 V 205.65817 H -1158.5255 Z"
             id="path3036"
             style="stroke-width:1.33333" /></g></g></clipPath><clipPath
       clipPathUnits="userSpaceOnUse"
       id="clipPath3049"><g
         id="g3055"><g
           id="g3053"><path
             d="M -1158.5255,-588.04314 H -36.005528 V 205.65817 H -1158.5255 Z"
             id="path3051"
             style="stroke-width:1.33333" /></g></g></clipPath><clipPath
       clipPathUnits="userSpaceOnUse"
       id="clipPath3064"><g
         id="g3070"><g
           id="g3068"><path
             d="M -1158.5255,-588.04314 H -36.005528 V 205.65817 H -1158.5255 Z"
             id="path3066"
             style="stroke-width:1.33333" /></g></g></clipPath><clipPath
       clipPathUnits="userSpaceOnUse"
       id="clipPath3079"><g
         id="g3085"><g
           id="g3083"><path
             d="M -1158.5255,-588.04314 H -36.005528 V 205.65817 H -1158.5255 Z"
             id="path3081"
             style="stroke-width:1.33333" /></g></g></clipPath><clipPath
       clipPathUnits="userSpaceOnUse"
       id="clipPath3094"><g
         id="g3100"><g
           id="g3098"><path
             d="M -1158.5255,-588.04314 H -36.005528 V 205.65817 H -1158.5255 Z"
             id="path3096"
             style="stroke-width:1.33333" /></g></g></clipPath><clipPath
       clipPathUnits="userSpaceOnUse"
       id="clipPath3109"><g
         id="g3115"><g
           id="g3113"><path
             d="M -1158.5255,-588.04314 H -36.005528 V 205.65817 H -1158.5255 Z"
             id="path3111"
             style="stroke-width:1.33333" /></g></g></clipPath><clipPath
       clipPathUnits="userSpaceOnUse"
       id="clipPath3124"><g
         id="g3130"><g
           id="g3128"><path
             d="M -1158.5255,-588.04314 H -36.005528 V 205.65817 H -1158.5255 Z"
             id="path3126"
             style="stroke-width:1.33333" /></g></g></clipPath><clipPath
       clipPathUnits="userSpaceOnUse"
       id="clipPath3139"><g
         id="g3145"><g
           id="g3143"><path
             d="M -1158.5255,-588.04314 H -36.005528 V 205.65817 H -1158.5255 Z"
             id="path3141"
             style="stroke-width:1.33333" /></g></g></clipPath><clipPath
       clipPathUnits="userSpaceOnUse"
       id="clipPath3154"><g
         id="g3160"><g
           id="g3158"><path
             d="M -1158.5255,-588.04314 H -36.005528 V 205.65817 H -1158.5255 Z"
             id="path3156"
             style="stroke-width:1.33333" /></g></g></clipPath><clipPath
       clipPathUnits="userSpaceOnUse"
       id="clipPath3169"><g
         id="g3175"><g
           id="g3173"><path
             d="M -1158.5255,-588.04314 H -36.005528 V 205.65817 H -1158.5255 Z"
             id="path3171"
             style="stroke-width:1.33333" /></g></g></clipPath><clipPath
       clipPathUnits="userSpaceOnUse"
       id="clipPath3184"><g
         id="g3190"><g
           id="g3188"><path
             d="M -1158.5255,-588.04314 H -36.005528 V 205.65817 H -1158.5255 Z"
             id="path3186"
             style="stroke-width:1.33333" /></g></g></clipPath><clipPath
       clipPathUnits="userSpaceOnUse"
       id="clipPath3199"><g
         id="g3205"><g
           id="g3203"><path
             d="M -1158.5255,-588.04314 H -36.005528 V 205.65817 H -1158.5255 Z"
             id="path3201"
             style="stroke-width:1.33333" /></g></g></clipPath><clipPath
       clipPathUnits="userSpaceOnUse"
       id="clipPath3214"><g
         id="g3220"><g
           id="g3218"><path
             d="M -1158.5255,-588.04314 H -36.005528 V 205.65817 H -1158.5255 Z"
             id="path3216"
             style="stroke-width:1.33333" /></g></g></clipPath><clipPath
       clipPathUnits="userSpaceOnUse"
       id="clipPath3229"><path
         d="m -728.26791,42.748441 h 2.72933 l -2.24666,1.932 h -1.788 z"
         style="fill:#868788;fill-opacity:1;fill-rule:nonzero;stroke:none;stroke-width:1.33333"
         id="path3231" /></clipPath><clipPath
       clipPathUnits="userSpaceOnUse"
       id="clipPath3240"><g
         id="g3246"><g
           id="g3244"><path
             d="M -1158.5255,-588.04314 H -36.005528 V 205.65817 H -1158.5255 Z"
             id="path3242"
             style="stroke-width:1.33333" /></g></g></clipPath><clipPath
       clipPathUnits="userSpaceOnUse"
       id="clipPath3255"><g
         id="g3261"><g
           id="g3259"><path
             d="M -1158.5255,-588.04314 H -36.005528 V 205.65817 H -1158.5255 Z"
             id="path3257"
             style="stroke-width:1.33333" /></g></g></clipPath><clipPath
       clipPathUnits="userSpaceOnUse"
       id="clipPath3270"><g
         id="g3276"><g
           id="g3274"><path
             d="M -1158.5255,-588.04314 H -36.005528 V 205.65817 H -1158.5255 Z"
             id="path3272"
             style="stroke-width:1.33333" /></g></g></clipPath><clipPath
       clipPathUnits="userSpaceOnUse"
       id="clipPath3285"><g
         id="g3291"><g
           id="g3289"><path
             d="M -1158.5255,-588.04314 H -36.005528 V 205.65817 H -1158.5255 Z"
             id="path3287"
             style="stroke-width:1.33333" /></g></g></clipPath><clipPath
       clipPathUnits="userSpaceOnUse"
       id="clipPath3300"><g
         id="g3306"><g
           id="g3304"><path
             d="M -1158.5255,-588.04314 H -36.005528 V 205.65817 H -1158.5255 Z"
             id="path3302"
             style="stroke-width:1.33333" /></g></g></clipPath><clipPath
       clipPathUnits="userSpaceOnUse"
       id="clipPath3315"><g
         id="g3321"><g
           id="g3319"><path
             d="M -1158.5255,-588.04314 H -36.005528 V 205.65817 H -1158.5255 Z"
             id="path3317"
             style="stroke-width:1.33333" /></g></g></clipPath><clipPath
       clipPathUnits="userSpaceOnUse"
       id="clipPath3330"><g
         id="g3336"><g
           id="g3334"><path
             d="M -1158.5255,-588.04314 H -36.005528 V 205.65817 H -1158.5255 Z"
             id="path3332"
             style="stroke-width:1.33333" /></g></g></clipPath><clipPath
       clipPathUnits="userSpaceOnUse"
       id="clipPath3345"><g
         id="g3351"><g
           id="g3349"><path
             d="M -1158.5255,-588.04314 H -36.005528 V 205.65817 H -1158.5255 Z"
             id="path3347"
             style="stroke-width:1.33333" /></g></g></clipPath><clipPath
       clipPathUnits="userSpaceOnUse"
       id="clipPath3360"><g
         id="g3366"><g
           id="g3364"><path
             d="M -1158.5255,-588.04314 H -36.005528 V 205.65817 H -1158.5255 Z"
             id="path3362"
             style="stroke-width:1.33333" /></g></g></clipPath><clipPath
       clipPathUnits="userSpaceOnUse"
       id="clipPath3375"><g
         id="g3381"><g
           id="g3379"><path
             d="M -1158.5255,-588.04314 H -36.005528 V 205.65817 H -1158.5255 Z"
             id="path3377"
             style="stroke-width:1.33333" /></g></g></clipPath><clipPath
       clipPathUnits="userSpaceOnUse"
       id="clipPath3390"><g
         id="g3396"><g
           id="g3394"><path
             d="M -1158.5255,-588.04314 H -36.005528 V 205.65817 H -1158.5255 Z"
             id="path3392"
             style="stroke-width:1.33333" /></g></g></clipPath><clipPath
       clipPathUnits="userSpaceOnUse"
       id="clipPath3405"><g
         id="g3411"><g
           id="g3409"><path
             d="M -1158.5255,-588.04314 H -36.005528 V 205.65817 H -1158.5255 Z"
             id="path3407"
             style="stroke-width:1.33333" /></g></g></clipPath><clipPath
       clipPathUnits="userSpaceOnUse"
       id="clipPath3420"><g
         id="g3426"><g
           id="g3424"><path
             d="M -1158.5255,-588.04314 H -36.005528 V 205.65817 H -1158.5255 Z"
             id="path3422"
             style="stroke-width:1.33333" /></g></g></clipPath><clipPath
       clipPathUnits="userSpaceOnUse"
       id="clipPath3435"><g
         id="g3441"><g
           id="g3439"><path
             d="M -1158.5255,-588.04314 H -36.005528 V 205.65817 H -1158.5255 Z"
             id="path3437"
             style="stroke-width:1.33333" /></g></g></clipPath><clipPath
       clipPathUnits="userSpaceOnUse"
       id="clipPath3450"><g
         id="g3456"><g
           id="g3454"><path
             d="M -1158.5255,-588.04314 H -36.005528 V 205.65817 H -1158.5255 Z"
             id="path3452"
             style="stroke-width:1.33333" /></g></g></clipPath><clipPath
       clipPathUnits="userSpaceOnUse"
       id="clipPath3465"><g
         id="g3471"><g
           id="g3469"><path
             d="M -1158.5255,-588.04314 H -36.005528 V 205.65817 H -1158.5255 Z"
             id="path3467"
             style="stroke-width:1.33333" /></g></g></clipPath><clipPath
       clipPathUnits="userSpaceOnUse"
       id="clipPath3480"><g
         id="g3486"><g
           id="g3484"><path
             d="M -1158.5255,-588.04314 H -36.005528 V 205.65817 H -1158.5255 Z"
             id="path3482"
             style="stroke-width:1.33333" /></g></g></clipPath><clipPath
       clipPathUnits="userSpaceOnUse"
       id="clipPath3495"><g
         id="g3501"><g
           id="g3499"><path
             d="M -1158.5255,-588.04314 H -36.005528 V 205.65817 H -1158.5255 Z"
             id="path3497"
             style="stroke-width:1.33333" /></g></g></clipPath><clipPath
       clipPathUnits="userSpaceOnUse"
       id="clipPath3510"><g
         id="g3516"><g
           id="g3514"><path
             d="M -1158.5255,-588.04314 H -36.005528 V 205.65817 H -1158.5255 Z"
             id="path3512"
             style="stroke-width:1.33333" /></g></g></clipPath><clipPath
       clipPathUnits="userSpaceOnUse"
       id="clipPath3525"><g
         id="g3531"><g
           id="g3529"><path
             d="M -1158.5255,-588.04314 H -36.005528 V 205.65817 H -1158.5255 Z"
             id="path3527"
             style="stroke-width:1.33333" /></g></g></clipPath><clipPath
       clipPathUnits="userSpaceOnUse"
       id="clipPath3540"><g
         id="g3546"><g
           id="g3544"><path
             d="M -1158.5255,-588.04314 H -36.005528 V 205.65817 H -1158.5255 Z"
             id="path3542"
             style="stroke-width:1.33333" /></g></g></clipPath><clipPath
       clipPathUnits="userSpaceOnUse"
       id="clipPath3555"><g
         id="g3561"><g
           id="g3559"><path
             d="M -1158.5255,-588.04314 H -36.005528 V 205.65817 H -1158.5255 Z"
             id="path3557"
             style="stroke-width:1.33333" /></g></g></clipPath><clipPath
       clipPathUnits="userSpaceOnUse"
       id="clipPath3570"><g
         id="g3576"><g
           id="g3574"><path
             d="M -1158.5255,-588.04314 H -36.005528 V 205.65817 H -1158.5255 Z"
             id="path3572"
             style="stroke-width:1.33333" /></g></g></clipPath></defs><sodipodi:namedview
     pagecolor="#ffffff"
     bordercolor="#999999"
     borderopacity="1"
     objecttolerance="10"
     gridtolerance="10"
     guidetolerance="10"
     inkscape:pageopacity="0"
     inkscape:pageshadow="2"
     inkscape:window-width="1920"
     inkscape:window-height="1017"
     id="namedview945"
     showgrid="false"
     inkscape:zoom="2.6222222"
     inkscape:cx="237.9661"
     inkscape:cy="70.550847"
     inkscape:window-x="3832"
     inkscape:window-y="-8"
     inkscape:window-maximized="1"
     inkscape:current-layer="svg943"
     inkscape:showpageshadow="0"
     inkscape:pagecheckerboard="0"
     inkscape:deskcolor="#d1d1d1" /><path
     style="fill:#f9f9f9;stroke-width:0.0852359"
     d="m 36.910889,68.921699 c -0.09278,-0.03973 -0.216016,-0.132536 -0.273848,-0.206185 -0.06045,-0.07695 -0.19083,-0.928773 -0.30663,-2.003271 -0.256711,-2.381831 -0.26293,-2.1816 0.06463,-2.082322 0.351426,0.106517 1.108467,0.104135 1.467275,-0.0043 0.156289,-0.04738 0.289387,-0.07694 0.295788,-0.06571 0.04265,0.07478 -0.391156,3.834991 -0.464154,4.023577 -0.05319,0.137435 -0.196414,0.274083 -0.34436,0.3286 -0.139298,0.0513 -0.257034,0.09082 -0.261636,0.08776 -0.0047,-0.0028 -0.08427,-0.03805 -0.177056,-0.07782 z m -0.218504,-6.383165 -0.470115,-0.02605 -0.05254,-0.368246 c -0.02889,-0.202531 -0.07214,-0.476679 -0.09612,-0.609217 -0.0467,-0.257974 0.02912,-0.239234 -1.126563,-0.278518 -0.155548,-0.005 -0.208109,0.07868 -0.338841,0.541399 l -0.154748,0.547654 h -0.479831 -0.47984 l 0.613242,-2.081103 c 0.337289,-1.144603 0.683154,-2.317689 0.768602,-2.606852 l 0.155342,-0.525756 0.587321,0.0056 c 0.32302,0.0031 0.611336,0.0309 0.640687,0.06192 0.06346,0.06706 0.953284,5.150645 0.923821,5.277723 -0.01148,0.04949 -0.224759,0.07628 -0.490441,0.06155 z m -0.845327,-2.361718 c -0.02859,-0.180731 -0.09617,-0.673626 -0.15014,-1.09532 -0.05401,-0.421695 -0.121037,-0.766725 -0.149035,-0.766725 -0.04424,0 -0.505219,1.869469 -0.501143,2.032257 5.89e-4,0.03339 0.160096,0.07578 0.353902,0.09422 0.193801,0.01847 0.385231,0.04042 0.425402,0.04887 0.04018,0.0085 0.04965,-0.132556 0.02101,-0.313282 z m 2.317514,2.064782 c -0.08501,-0.563161 -0.405392,-4.980949 -0.364369,-5.024299 0.02288,-0.02418 0.505226,-0.06877 1.071915,-0.09912 0.879618,-0.04713 1.070554,-0.0332 1.305161,0.09499 0.531547,0.290501 0.840007,1.421282 0.85135,3.120913 0.0047,0.717797 -0.02512,0.936029 -0.172362,1.257487 -0.283655,0.619258 -0.609465,0.765238 -1.968601,0.882026 l -0.679269,0.05839 z m 1.710637,-0.875591 c 0.220164,-0.265983 0.259145,-0.698068 0.161195,-1.7864 -0.116753,-1.29733 -0.306406,-1.704165 -0.793229,-1.701622 -0.494218,0.0025 -0.490164,-0.01946 -0.340234,1.848137 0.07503,0.934642 0.150575,1.746501 0.167867,1.804121 0.04772,0.159001 0.636322,0.0388 0.804401,-0.164236 z m -8.123016,0.615353 c -0.303594,-0.07265 -0.347207,-0.11113 -0.313189,-0.27633 0.02171,-0.105559 0.17182,-0.980559 0.333504,-1.944437 0.161696,-0.963883 0.314402,-1.858451 0.339359,-1.987942 0.04371,-0.226874 0.02712,-0.239222 -0.457542,-0.339994 -0.540055,-0.112287 -0.554957,-0.135286 -0.449346,-0.693342 0.06208,-0.328049 -0.08167,-0.332508 1.883533,0.05839 l 1.149438,0.228626 -0.04113,0.385676 c -0.0226,0.212125 -0.06328,0.409079 -0.09033,0.43768 -0.02707,0.02861 -0.261518,0.007 -0.521016,-0.04812 -0.259494,-0.05509 -0.479716,-0.09028 -0.489394,-0.07824 -0.0096,0.01206 -0.180746,0.987455 -0.380183,2.167567 -0.278208,1.64629 -0.391497,2.149057 -0.486787,2.160274 -0.06832,0.008 -0.28292,-0.02337 -0.476909,-0.06978 z m 11.174778,-0.309824 c -0.450987,-0.248028 -0.718594,-0.748495 -0.998366,-1.867132 -0.335695,-1.342198 -0.400352,-2.299851 -0.183394,-2.716385 0.219723,-0.421857 0.742362,-0.71263 1.373273,-0.764027 0.440032,-0.03587 0.551267,-0.01269 0.799795,0.166445 0.399791,0.288187 0.708703,0.982928 0.954966,2.147714 0.256686,1.214136 0.272006,2.060728 0.04442,2.455195 -0.330904,0.573551 -1.422609,0.890626 -1.990709,0.57819 z m 1.126404,-0.949633 c 0.169497,-0.273383 0.12179,-0.819085 -0.182522,-2.087825 -0.238178,-0.993026 -0.378441,-1.324999 -0.616796,-1.459818 -0.232812,-0.131681 -0.592051,0.06647 -0.66765,0.368277 -0.114113,0.455569 0.38673,2.781311 0.685347,3.182524 0.221164,0.29716 0.596381,0.295642 0.781621,-0.0031 z m -15.906743,0.359822 c -0.795635,-0.300107 -1.013986,-0.624319 -0.953836,-1.416276 0.02389,-0.314525 0.06668,-0.59642 0.09507,-0.626433 0.02842,-0.03003 0.25314,0.01256 0.499419,0.0946 l 0.447782,0.149177 -0.07925,0.303339 c -0.09601,0.367471 0.01247,0.6281 0.311442,0.748227 0.274743,0.110396 0.487164,-0.01579 0.599417,-0.356135 0.115465,-0.350047 0.03559,-0.559027 -0.491524,-1.285839 -0.233294,-0.321682 -0.461488,-0.686117 -0.507096,-0.809845 -0.136385,-0.370006 -0.09968,-0.997273 0.08016,-1.369673 0.260805,-0.540075 0.457242,-0.679757 1.016017,-0.722473 0.413494,-0.03159 0.5685,6.22e-4 0.951741,0.198956 0.574649,0.297134 0.736645,0.591234 0.685401,1.244335 -0.02018,0.257124 -0.06186,0.494108 -0.09262,0.526613 -0.03078,0.03252 -0.232908,3.56e-4 -0.4492,-0.07154 -0.336741,-0.111876 -0.390902,-0.161288 -0.376799,-0.343792 0.02888,-0.37421 -0.05707,-0.610808 -0.256999,-0.707072 -0.259023,-0.124728 -0.50342,0.01629 -0.615132,0.354953 -0.105328,0.319345 0.02465,0.617878 0.584667,1.342726 0.6006,0.777394 0.685931,1.39613 0.302183,2.191102 -0.301476,0.624537 -0.988877,0.842457 -1.750849,0.555048 z m -3.355145,-1.500638 -1.095051,-0.558431 0.664637,-1.514982 c 0.365546,-0.833236 0.838378,-1.919149 1.050729,-2.413138 0.212349,-0.493988 0.412652,-0.898162 0.445104,-0.898162 0.182869,0 2.143881,1.098878 2.143881,1.201347 0,0.137624 -0.230966,0.638788 -0.294387,0.638788 -0.02277,0 -0.300706,-0.13801 -0.617644,-0.306686 -0.316931,-0.168681 -0.616778,-0.306691 -0.666333,-0.306691 -0.04953,0 -0.196518,0.246447 -0.326591,0.547661 l -0.236503,0.54766 0.614714,0.329654 c 0.338094,0.181309 0.614713,0.347554 0.614713,0.369434 0,0.102674 -0.286421,0.659101 -0.33927,0.659101 -0.03289,0 -0.309301,-0.118292 -0.614208,-0.262874 -0.304911,-0.144582 -0.569023,-0.262874 -0.586914,-0.262874 -0.04266,0 -0.495313,0.954923 -0.564288,1.190408 -0.04671,0.159524 0.03083,0.224568 0.611025,0.5123 0.365498,0.181274 0.664543,0.366475 0.664543,0.411567 0,0.155183 -0.240366,0.68973 -0.306688,0.682045 -0.03653,-0.0043 -0.559187,-0.258989 -1.161469,-0.566127 z m 23.613218,-2.374079 c -0.642646,-1.283986 -1.168446,-2.345569 -1.168446,-2.359074 0,-0.0135 0.387966,-0.244501 0.862152,-0.513308 1.574215,-0.89241 2.053248,-0.648046 3.136499,1.599992 0.397027,0.823927 0.436509,0.958574 0.436797,1.489632 5.88e-4,0.795333 -0.159213,1.011282 -1.203187,1.627556 -0.45627,0.269347 -0.84439,0.489724 -0.862481,0.489724 -0.01806,0 -0.558699,-1.050536 -1.201334,-2.334522 z m 2.275378,0.633279 c 0.167855,-0.270746 0.111205,-0.512244 -0.351226,-1.497088 -0.411481,-0.876337 -0.684554,-1.294233 -0.978881,-1.498051 -0.179011,-0.123964 -0.223511,-0.122839 -0.493289,0.01243 -0.163084,0.08179 -0.317155,0.183985 -0.342365,0.227098 -0.04153,0.071 0.306424,0.80757 1.225373,2.594064 l 0.326416,0.634566 0.24252,-0.132544 c 0.133379,-0.0729 0.30054,-0.226122 0.371452,-0.340504 z m 2.26704,-1.350025 c -0.42962,-0.29188 -1.544487,-1.793613 -1.865577,-2.512952 -0.394704,-0.884253 -0.208811,-1.563774 0.581324,-2.124914 0.539556,-0.383194 1.043398,-0.39433 1.514742,-0.03345 0.869941,0.666009 2.098579,2.642623 2.100597,3.37939 0.0012,0.341567 -0.336375,0.900053 -0.718976,1.190441 -0.556816,0.422608 -1.090053,0.456184 -1.61211,0.101511 z m 1.224697,-0.837159 c 0.211568,-0.192328 0.222122,-0.231762 0.138862,-0.518493 -0.189942,-0.654078 -1.557236,-2.520582 -1.940643,-2.649183 -0.279272,-0.09368 -0.573647,0.176578 -0.573647,0.526644 0,0.462235 1.246541,2.341876 1.782594,2.68795 0.314407,0.202986 0.318268,0.202681 0.592834,-0.04695 z m -34.924642,0.263695 c -0.344095,-0.164522 -0.845474,-0.639497 -0.992729,-0.940449 -0.174049,-0.355712 -0.146412,-0.84809 0.07593,-1.352712 0.275298,-0.62481 1.47027,-2.162388 1.931476,-2.485251 0.662352,-0.463665 1.296497,-0.336655 1.926681,0.385881 0.71913,0.824518 0.539334,1.500674 -0.88306,3.3209 -0.807809,1.03374 -1.444377,1.365165 -2.058298,1.071631 z m 0.70706,-1.073006 c 0.323415,-0.287602 1.144757,-1.345859 1.486233,-1.914921 0.314284,-0.523753 0.325942,-0.767166 0.04781,-0.998385 -0.176756,-0.146939 -0.252214,-0.160494 -0.462376,-0.08307 -0.459658,0.169352 -1.979565,2.227544 -1.979565,2.680638 0,0.285508 0.220026,0.544577 0.462502,0.544577 0.103437,0 0.303863,-0.102979 0.445393,-0.228839 z M 36.063934,55.27367 C 35.891343,55.23855 35.87724,55.1886 35.87554,54.606504 35.87434,54.260449 35.8193,52.51835 35.752733,50.73517 35.686193,48.951991 35.631049,47.148007 35.630196,46.726305 l -0.0018,-0.766718 h 0.567082 0.567094 l 0.05477,2.24866 c 0.03013,1.236762 0.05478,3.346349 0.05478,4.687963 v 2.439296 l -0.310919,-0.01194 c -0.171003,-0.0066 -0.394867,-0.02904 -0.497471,-0.04993 z m 1.305857,-1.183532 c 0,-0.696887 0.02471,-2.811349 0.05495,-4.698813 l 0.05495,-3.431738 h 0.562016 c 0.309113,0 0.577231,0.0296 0.595816,0.06572 0.04384,0.08523 -0.270429,9.161716 -0.31899,9.213037 -0.02029,0.02145 -0.24202,0.05695 -0.492777,0.07891 l -0.455911,0.03998 z m -2.078295,0.973638 -0.212775,-0.08265 -0.435496,-4.182179 c -0.23952,-2.300197 -0.456354,-4.330041 -0.481839,-4.510773 l -0.04636,-0.32859 h 0.386302 c 0.235701,0 0.399509,0.04272 0.420183,0.109532 0.0186,0.06025 0.166643,2.002238 0.328934,4.31555 0.162283,2.313311 0.311413,4.334171 0.331415,4.490804 0.03918,0.306852 0.03007,0.312759 -0.290374,0.188303 z m 3.447818,-0.357166 c 0.02518,-0.256532 0.155789,-2.122539 0.290204,-4.146688 0.329058,-4.955052 0.282392,-4.60064 0.605571,-4.598998 0.52677,0.0025 0.524488,-0.23806 0.04265,4.512037 -0.24335,2.399216 -0.479774,4.411658 -0.525374,4.472094 -0.0456,0.06043 -0.167504,0.136449 -0.270897,0.168925 -0.182463,0.05732 -0.18664,0.04533 -0.142174,-0.40737 z M 16.096567,52.716901 c -0.267306,-0.172269 -1.403077,-1.449808 -1.403077,-1.578204 0,-0.09331 3.519681,-3.55804 3.614468,-3.55804 0.0383,0 0.351961,0.335169 0.697026,0.744814 0.936969,1.112344 0.998093,1.574834 0.334116,2.52806 -0.425657,0.611088 -1.514771,1.629221 -1.992443,1.862587 -0.426852,0.208543 -0.927235,0.208855 -1.25009,6.21e-4 z m 0.859564,-0.965686 c 0.43221,-0.234491 1.627086,-1.431895 1.789223,-1.792998 0.18095,-0.403004 0.175416,-0.439067 -0.122432,-0.797583 l -0.257597,-0.310068 -1.226646,1.205177 c -0.674656,0.662851 -1.230321,1.230581 -1.23481,1.261633 -0.01645,0.113785 0.477027,0.600742 0.608786,0.600742 0.07473,0 0.274288,-0.0751 0.443476,-0.166903 z M 56.96077,50.331637 55.036224,48.65763 55.637105,47.856265 c 0.71167,-0.949104 1.061972,-1.184844 1.537099,-1.034399 0.687465,0.217684 1.170771,0.794002 1.171647,1.397157 5.88e-4,0.344016 0.014,0.367885 0.160912,0.284785 0.340401,-0.192539 0.64516,-0.102574 1.224009,0.361308 0.310219,0.248611 0.663821,0.516472 0.785775,0.595251 l 0.221741,0.143233 -0.263195,0.365349 c -0.144757,0.200946 -0.319696,0.36683 -0.388755,0.368633 -0.06907,0.0019 -0.348894,-0.187429 -0.621837,-0.420507 -0.511309,-0.43663 -0.797618,-0.627721 -0.940476,-0.627721 -0.114582,0 -0.604446,0.445963 -0.574942,0.523405 0.01329,0.03495 0.370552,0.367165 0.793865,0.738279 l 0.769644,0.674763 -0.167251,0.236623 c -0.29201,0.41312 -0.394509,0.543321 -0.427707,0.543265 -0.01776,-2.5e-5 -0.898363,-0.75335 -1.956864,-1.674052 z m 0.721918,-1.670849 c 5.89e-4,-0.216179 -0.38,-0.656092 -0.655448,-0.757572 -0.264553,-0.09747 -0.515245,0.02761 -0.670711,0.334609 -0.07197,0.142132 -0.0089,0.230803 0.43465,0.611405 l 0.518823,0.445166 0.18614,-0.243493 c 0.102375,-0.133918 0.186323,-0.309471 0.186546,-0.390115 z m 1.451367,-1.386766 c -1.094428,-0.766849 -1.989726,-1.425596 -1.989532,-1.463885 5.88e-4,-0.168557 0.423624,-0.810715 0.511009,-0.776145 0.08429,0.03333 3.998162,2.733807 4.079581,2.814794 0.06161,0.06131 -0.4137,0.82708 -0.511039,0.823349 -0.05506,-0.0019 -0.995583,-0.631264 -2.090019,-1.398113 z M 11.878556,46.792027 c -0.161838,-0.313263 -0.428235,-0.828846 -0.591996,-1.145747 -0.163763,-0.3169 -0.276557,-0.598577 -0.250655,-0.625955 0.0259,-0.02736 1.008417,-0.610832 2.183366,-1.296571 l 2.136273,-1.246797 0.169633,0.317398 c 0.0933,0.17457 0.363372,0.701439 0.600163,1.170811 l 0.430529,0.853412 -0.341328,0.184033 c -0.392339,0.211535 -0.344973,0.250825 -0.782731,-0.649227 -0.280651,-0.577028 -0.297633,-0.593989 -0.473253,-0.472699 -0.100186,0.06919 -0.343034,0.212417 -0.539662,0.318275 l -0.357507,0.192464 0.34306,0.660606 c 0.188682,0.363335 0.330904,0.669616 0.31605,0.680628 -0.01486,0.01101 -0.164423,0.103114 -0.332371,0.204675 l -0.305363,0.184662 -0.118129,-0.190736 c -0.06498,-0.104906 -0.217342,-0.39775 -0.338599,-0.65077 -0.121258,-0.253019 -0.234911,-0.460034 -0.252562,-0.460034 -0.0538,0 -1.079461,0.620944 -1.156241,0.700003 -0.04009,0.04129 0.07898,0.362669 0.269462,0.72736 0.187707,0.359374 0.341285,0.690538 0.341285,0.735921 0,0.06867 -0.507824,0.377854 -0.620591,0.377854 -0.01902,0 -0.166997,-0.256308 -0.328833,-0.569566 z m 48.955187,-0.771985 c -0.823287,-0.381167 -1.751455,-0.961091 -2.059796,-1.286958 -0.462802,-0.48912 -0.525005,-1.123233 -0.180235,-1.837461 0.524171,-1.085869 1.201199,-1.153575 2.851362,-0.285153 1.918944,1.009884 2.293074,1.676439 1.647462,2.935095 -0.430256,0.838794 -1.146819,0.989315 -2.258793,0.474477 z m 1.575316,-0.849085 c 0.395637,-0.418138 0.04447,-0.835002 -1.324682,-1.572496 -1.200011,-0.646387 -1.467087,-0.709522 -1.733529,-0.409781 -0.250704,0.28203 -0.189912,0.581216 0.177675,0.874472 0.624262,0.498023 2.161435,1.276885 2.528163,1.280976 0.102604,0.0013 0.261171,-0.07678 0.352373,-0.173171 z m -37.55818,-0.534391 c -0.85636,-0.177231 -1.494211,-0.764754 -1.662417,-1.531267 -0.04152,-0.189226 -0.07638,-1.233225 -0.07747,-2.319996 -0.0014,-1.41757 -0.03009,-2.00567 -0.101472,-2.081104 -0.05472,-0.05783 -0.222616,-0.105155 -0.373102,-0.105155 h -0.27361 v -0.481939 -0.481938 h 1.782597 1.782599 v 0.481938 0.481939 h -0.315068 c -0.173286,0 -0.359833,0.04732 -0.414559,0.105155 -0.137498,0.145315 -0.138321,3.812122 -0.0012,4.296654 0.126679,0.446858 0.391143,0.627757 0.905735,0.619556 0.48997,-0.0079 0.792287,-0.19862 0.951083,-0.600275 0.156089,-0.394815 0.171715,-4.153422 0.01795,-4.315935 -0.05472,-0.05783 -0.222616,-0.105155 -0.373099,-0.105155 h -0.273589 v -0.481939 -0.481938 h 1.368036 1.368042 v 0.481938 0.481939 h -0.273621 c -0.150483,0 -0.31838,0.04732 -0.373101,0.105155 -0.07124,0.07529 -0.100068,0.65386 -0.101526,2.037293 -0.0024,2.084964 -0.06,2.548536 -0.378766,3.037415 -0.487664,0.747903 -1.889382,1.125513 -3.183664,0.857659 z m 23.079512,-0.05876 c -0.585621,-0.222211 -0.822464,-0.402196 -1.088122,-0.826881 -0.194872,-0.311523 -0.227847,-0.454463 -0.227847,-0.98755 0,-0.453212 0.04083,-0.689138 0.149592,-0.864567 0.474498,-0.765214 1.562767,-0.769752 1.800798,-0.0075 0.198566,0.635872 -0.120118,1.264245 -0.641175,1.264245 -0.249093,0 -0.269625,0.01785 -0.193467,0.168234 0.04683,0.09253 0.212863,0.212766 0.368905,0.267191 0.376705,0.131393 0.838772,-0.06218 0.977069,-0.409279 0.13151,-0.330064 0.195919,-4.012036 0.07595,-4.341695 -0.07555,-0.207612 -0.133885,-0.24097 -0.421394,-0.24097 l -0.333693,-6e-6 v -0.481939 -0.481938 h 1.782601 1.782594 v 0.476902 0.476902 l -0.352372,0.02693 -0.352372,0.02693 -0.047,2.278263 c -0.05101,2.474284 -0.0828,2.65846 -0.542514,3.145478 -0.369252,0.391178 -0.862834,0.582051 -1.628806,0.629872 -0.531801,0.03321 -0.778009,0.0068 -1.108766,-0.118647 z m -4.932926,-0.120812 c -0.410512,-0.251595 -0.569289,-0.642916 -0.573689,-1.413949 -0.0047,-0.832317 -0.111118,-1.383807 -0.294187,-1.52528 -0.08201,-0.06338 -0.364015,-0.114723 -0.630081,-0.114723 h -0.481616 v 0.882014 c 0,1.077855 0.05866,1.220994 0.500384,1.220994 h 0.328733 v 0.481938 0.481946 h -1.782594 -1.782601 v -0.4769 -0.476901 l 0.352372,-0.02693 0.352378,-0.02693 0.02212,-2.359815 c 0.02407,-2.57059 0.03706,-2.499596 -0.457387,-2.502058 l -0.269466,-0.0013 v -0.481945 -0.481939 l 2.383705,5.28e-4 c 2.524705,5.23e-4 2.858269,0.04147 3.316546,0.406959 0.376582,0.300355 0.534953,0.671861 0.54026,1.267378 0.0058,0.637165 -0.25964,1.109287 -0.764489,1.360404 l -0.342047,0.170136 0.321679,0.149992 c 0.409599,0.19099 0.502531,0.416191 0.56047,1.35812 0.06013,0.977581 0.09686,1.157387 0.236401,1.157387 0.147588,0 0.214575,-0.193709 0.214575,-0.620545 v -0.343317 h 0.343635 0.343631 l -0.05142,0.582008 c -0.09964,1.127777 -0.490765,1.5225 -1.505117,1.518993 -0.437968,-0.0013 -0.655925,-0.04751 -0.882172,-0.186179 z m -0.643013,-4.271971 c 0.105464,-0.137649 0.155849,-0.343196 0.155849,-0.63581 0,-0.549917 -0.230619,-0.822672 -0.76752,-0.907762 -0.684401,-0.108469 -0.68037,-0.113667 -0.707168,0.910641 l -0.0237,0.907203 0.593351,-0.03545 c 0.497653,-0.02972 0.618508,-0.06825 0.749216,-0.238836 z m -11.949228,3.802963 v -0.481938 h 0.273608 c 0.150482,0 0.31838,-0.04732 0.373099,-0.105149 0.141622,-0.14968 0.141622,-4.547049 0,-4.696723 -0.05472,-0.05783 -0.222617,-0.105155 -0.373099,-0.105155 h -0.273608 v -0.481939 -0.481939 h 3.109179 3.109182 v 1.27494 1.274947 l -0.462565,-0.0263 -0.462572,-0.0263 -0.179993,-0.562963 c -0.259952,-0.813009 -0.427654,-0.919078 -1.512393,-0.95656 L 33.141303,38.583 v 0.928044 0.928039 h 0.284168 c 0.35469,0 0.627856,-0.329193 0.627856,-0.756633 0,-0.29106 0.0047,-0.294871 0.373105,-0.294871 h 0.3731 v 1.57726 1.577259 h -0.362321 -0.362316 l -0.04242,-0.397875 c -0.05366,-0.502942 -0.250979,-0.741256 -0.613818,-0.741256 H 33.14132 v 1.051504 1.051504 h 0.905657 c 0.83922,0 0.92331,-0.01567 1.146167,-0.213872 0.241561,-0.214818 0.373917,-0.562496 0.477304,-1.253855 l 0.05571,-0.372407 h 0.490182 0.490182 v 1.402007 1.402012 H 33.555891 30.405254 Z M 10.591022,43.182965 C 10.432327,43.095595 10.224469,42.900597 10.129116,42.749636 9.885105,42.36332 9.39471,40.877835 9.481384,40.787553 c 0.07972,-0.08305 4.374148,-1.838026 4.497628,-1.838026 0.09821,0 0.574048,1.296671 0.6946,1.892824 0.07912,0.391278 0.0698,0.489586 -0.0748,0.788629 -0.476123,0.984676 -3.154386,2.021811 -4.00779,1.551985 z m 1.881143,-1.254297 c 1.160102,-0.469291 1.499843,-0.81301 1.331516,-1.347102 -0.04747,-0.150614 -0.112506,-0.304945 -0.14453,-0.342954 -0.03203,-0.03799 -0.757864,0.215191 -1.612981,0.562676 l -1.554756,0.631781 0.04947,0.26142 c 0.137777,0.728056 0.578346,0.781479 1.931281,0.234179 z M 9.055116,39.628624 c -0.02016,-0.06025 -0.07128,-0.278505 -0.113609,-0.485028 l -0.07697,-0.375497 0.489312,-0.261046 c 0.539112,-0.287615 0.53743,-0.282778 0.379039,-1.090969 l -0.103038,-0.525749 -0.575804,-0.04384 -0.575803,-0.04384 -0.09725,-0.464628 -0.09725,-0.464629 1.546639,0.05963 c 0.850652,0.03276 2.011581,0.08414 2.579843,0.114128 l 1.033205,0.05453 0.10321,0.525748 c 0.05676,0.289164 0.104841,0.587232 0.106829,0.662367 0.0025,0.09284 -0.707026,0.507126 -2.214264,1.292958 -1.219835,0.635983 -2.247037,1.156117 -2.282669,1.155856 -0.03563,-2.61e-4 -0.08128,-0.04974 -0.101428,-0.110011 z m 2.470193,-2.224062 c 0.465663,-0.223211 0.883968,-0.44271 0.92957,-0.487771 0.06391,-0.06316 -1.922168,-0.01169 -2.004749,0.05191 -0.03085,0.02375 0.154365,0.84168 0.190595,0.84168 0.02086,0 0.418923,-0.182628 0.884584,-0.40584 z m 51.215395,1.432312 c -1.254035,-0.291439 -2.293868,-0.541194 -2.310729,-0.555017 -0.07373,-0.06043 0.419606,-2.113902 0.555339,-2.311589 0.379177,-0.552281 1.045415,-0.646107 2.447116,-0.344631 1.303061,0.280265 1.853953,0.594573 2.09649,1.196159 0.153072,0.379651 0.144341,0.597888 -0.06635,1.659074 -0.138946,0.699821 -0.209911,0.904404 -0.310921,0.896334 -0.07199,-0.0056 -1.156913,-0.248898 -2.41095,-0.54033 z m 2.066963,-1.217668 c 0.0047,-0.261581 -0.04089,-0.357776 -0.241009,-0.508383 -0.325179,-0.244712 -1.722479,-0.614806 -2.321207,-0.614806 -0.542284,0 -0.720689,0.138736 -0.828594,0.644366 l -0.06545,0.306671 0.59101,0.13852 c 2.77879,0.651298 2.743843,0.645099 2.803064,0.497098 0.031,-0.07746 0.05897,-0.286018 0.06219,-0.463466 z M 32.481889,36.194269 c -0.05525,-0.07037 -0.08757,-0.198857 -0.07178,-0.285513 0.02724,-0.149438 0.269977,-0.157552 4.712073,-0.157552 h 4.68337 v 0.262874 0.262875 l -4.6116,0.02263 c -3.960532,0.01946 -4.625772,0.0043 -4.712067,-0.105322 z m -0.447041,-1.085254 c -0.07548,-0.08813 -0.13722,-0.228155 -0.13722,-0.311156 0,-0.09268 -0.11999,-0.201498 -0.31092,-0.281982 -1.304402,-0.549867 -2.281978,-1.305002 -2.725959,-2.105669 -0.115665,-0.208582 -0.33777,-0.75618 -0.493576,-1.216897 -0.417913,-1.235749 -0.547568,-1.45551 -1.21253,-2.055206 -0.766784,-0.691528 -0.965208,-0.953402 -0.804083,-1.061211 0.164001,-0.109737 21.607705,-0.10518 21.671904,0.0043 0.08247,0.141031 -0.184936,0.487013 -0.784094,1.014478 -0.640881,0.564205 -0.855756,0.92861 -1.270097,2.153969 -0.345617,1.022145 -0.77605,1.731312 -1.333424,2.196947 -0.438775,0.366549 -1.289048,0.848705 -1.813629,1.02843 -0.171004,0.05857 -0.310919,0.157297 -0.310919,0.21935 0,0.06205 -0.07733,0.21672 -0.171845,0.343706 l -0.171838,0.230878 h -4.997277 c -4.735989,0 -5.004454,-0.0084 -5.134493,-0.160245 z m 2.72323,-0.85613 c 0.547214,-0.162078 1.517277,-0.417896 2.1557,-0.568477 2.447103,-0.577195 3.506904,-1.204592 3.761591,-2.226855 0.107098,-0.42984 0.02306,-0.86466 -0.268954,-1.391224 -0.268665,-0.484513 -0.700579,-0.850534 -1.432528,-1.213987 -0.509003,-0.252752 -0.674876,-0.288143 -1.604096,-0.342282 -1.516307,-0.08834 -9.059339,-0.08595 -9.192054,0.0031 -0.09046,0.06056 -0.05224,0.191097 0.190106,0.649072 0.166838,0.315297 0.41597,0.941052 0.55364,1.390571 0.299763,0.978812 0.612818,1.520797 1.183119,2.048286 0.458341,0.423946 1.452302,1.00619 2.021249,1.184017 0.229042,0.07159 0.428207,0.214974 0.568365,0.409192 0.380941,0.527819 0.471556,0.5304 2.063862,0.05875 z m 28.700544,0.442562 c -1.269598,-0.110869 -2.319101,-0.21442 -2.332233,-0.230107 -0.01312,-0.01567 0.01552,-0.610138 0.06371,-1.320995 l 0.0876,-1.292474 0.296217,0.0013 c 0.16292,6.21e-4 0.33487,0.03028 0.382113,0.06572 0.0546,0.04092 0.06794,0.33602 0.03665,0.809192 -0.02706,0.40965 -0.03577,0.76336 -0.01923,0.786031 0.01648,0.02269 0.283534,0.05634 0.593441,0.07487 l 0.56347,0.03364 0.05389,-0.415688 c 0.02965,-0.228626 0.05389,-0.54587 0.05389,-0.704976 0,-0.355034 0.05554,-0.395152 0.452806,-0.327017 l 0.312884,0.05366 -0.03588,0.72284 -0.03588,0.72284 0.295609,0.05167 c 0.162591,0.02841 0.487059,0.05211 0.721042,0.05266 l 0.425425,0.0013 0.05961,-0.840368 c 0.05701,-0.803982 0.06734,-0.838179 0.237873,-0.789823 0.09803,0.0278 0.267,0.05111 0.375481,0.05173 l 0.197226,0.0013 -0.05454,0.898161 c -0.09469,1.559471 -0.136021,1.819485 -0.287298,1.807367 -0.07454,-0.0062 -1.1743,-0.10158 -2.443891,-0.212449 z M 8.848228,34.553364 C 8.302678,34.254824 8.127384,33.820956 8.056138,32.592867 L 8,31.625171 10.310352,31.473819 c 1.270693,-0.08325 2.389504,-0.150538 2.486248,-0.149531 0.165918,0.0019 0.179223,0.06068 0.234511,1.039697 0.04623,0.818587 0.03322,1.100916 -0.06157,1.33629 -0.293202,0.728019 -0.856956,0.948893 -2.587444,1.013756 -1.09624,0.0411 -1.1815,0.03214 -1.533863,-0.160667 z m 3.05056,-1.06897 c 0.318819,-0.176659 0.426803,-0.420892 0.368578,-0.833614 l -0.04182,-0.296414 -0.631539,0.05285 c -0.347346,0.02904 -1.107244,0.07947 -1.688661,0.112056 l -1.057122,0.05926 v 0.341685 c 0,0.250382 0.05711,0.40204 0.213758,0.567587 0.213603,0.225748 0.214609,0.225885 1.388767,0.186918 0.897961,-0.02978 1.239385,-0.07466 1.448035,-0.190275 z m -1.466643,-3.00104 C 9.137236,30.418704 8.06643,30.353826 8.052576,30.339183 c -0.01385,-0.01467 -0.0039,-0.245017 0.02221,-0.511952 l 0.0474,-0.485339 0.425207,0.02786 c 0.233864,0.01529 1.338,0.06935 2.453637,0.120096 1.115635,0.05074 2.042139,0.10674 2.058897,0.124454 0.07382,0.07801 -0.09347,1.009772 -0.179311,0.998729 -0.05175,-0.0066 -1.153557,-0.065 -2.448467,-0.129654 z m 1.277639,-2.114598 c 0.07481,-0.590557 0.09294,-0.627254 0.283863,-0.574491 0.09391,0.02592 0.266282,-0.01897 0.383046,-0.09982 0.295337,-0.204515 0.258883,-0.655284 -0.06624,-0.81916 -0.328528,-0.165585 -0.674871,0.03606 -1.166425,0.679155 -0.537367,0.70301 -0.868496,0.90944 -1.45737,0.908514 -0.562711,-6.22e-4 -1.065253,-0.24753 -1.27371,-0.625128 -0.301682,-0.546479 -0.124564,-1.914455 0.295428,-2.28175 0.19654,-0.171884 0.714521,-0.27722 1.071573,-0.217914 0.261374,0.0434 0.304302,0.0806 0.27424,0.237605 -0.0196,0.10237 -0.0579,0.332706 -0.08512,0.511852 -0.04652,0.306219 -0.06412,0.322622 -0.293998,0.274036 -0.3724,-0.07871 -0.661015,0.159517 -0.661015,0.545627 0,0.264124 0.03822,0.325879 0.263645,0.426054 0.38621,0.171622 0.649104,0.03656 1.185326,-0.608919 0.61178,-0.73645 0.938149,-0.943743 1.485848,-0.943743 0.923363,0 1.376985,0.470983 1.374449,1.427045 -0.0029,1.080554 -0.394155,1.577259 -1.242505,1.577259 h -0.423755 z m 52.767125,-0.142748 c -0.003,-0.05403 -0.03407,-0.284922 -0.06958,-0.513114 l -0.06464,-0.414893 0.297588,-0.05671 c 0.489317,-0.09319 0.600492,-0.188448 0.571889,-0.49001 -0.01666,-0.175658 -0.08332,-0.290487 -0.191395,-0.329771 -0.0912,-0.03314 -1.042609,0.08288 -2.114241,0.257838 l -1.948419,0.318101 -0.07216,-0.468503 c -0.03971,-0.257676 -0.05618,-0.48537 -0.03671,-0.505995 0.05842,-0.06175 3.696227,-0.655401 4.016076,-0.655401 0.618331,0 1.060212,0.538849 1.157221,1.411145 0.09813,0.882369 -0.219946,1.284726 -1.162774,1.47088 -0.265277,0.05235 -0.379395,0.04533 -0.38286,-0.02363 z M 37.061947,27.448689 C 36.807566,27.15526 36.527236,26.51978 36.556469,26.30283 l 0.02565,-0.190425 4.723463,-0.02263 c 4.618642,-0.02213 4.735467,-0.01853 5.264878,0.163284 0.297776,0.102264 0.702327,0.283145 0.898987,0.401961 0.339788,0.205285 0.677841,0.644383 0.67851,0.881305 0,0.08652 -1.146329,0.109532 -5.457388,0.109532 h -5.45771 z m -10.879961,-0.01524 c -0.149812,-0.19078 0.02648,-0.750297 0.345683,-1.097037 0.331552,-0.36017 1.135712,-0.775088 1.639014,-0.845677 0.340329,-0.04775 0.395062,-0.09092 0.621831,-0.490744 0.305702,-0.538968 0.552657,-0.73091 1.036673,-0.805735 0.339542,-0.05248 0.392238,-0.09486 0.580385,-0.466593 0.113811,-0.224872 0.260546,-0.426812 0.326091,-0.448754 0.07806,-0.02612 0.05737,0.04308 -0.06001,0.200827 -0.09855,0.132394 -0.203002,0.374974 -0.23213,0.539061 -0.04688,0.264081 -0.08927,0.304471 -0.369163,0.351777 -0.494865,0.08364 -0.767749,0.314102 -1.06146,0.89647 -0.149405,0.296258 -0.327862,0.538645 -0.396578,0.538645 -0.210092,0 -1.347634,0.590189 -1.69017,0.876903 -0.177586,0.148648 -0.369493,0.406474 -0.426449,0.572941 -0.114076,0.33341 -0.167726,0.363833 -0.313725,0.177916 z M 36.638341,25.56473 c -5.098051,-0.02182 -5.4143,-0.03214 -5.388132,-0.175895 0.02559,-0.140564 0.2272,-0.154555 2.534759,-0.1759 l 2.506972,-0.0232 v -0.258508 c 0,-0.165897 0.05748,-0.291005 0.160366,-0.349215 0.104352,-0.059 1.588636,-0.09059 4.249213,-0.09038 3.933789,3.53e-4 4.099091,0.007 4.359067,0.174451 0.268206,0.172823 0.599446,0.644708 0.60004,0.854818 0,0.08493 -0.404769,0.104756 -1.803016,0.08827 -0.991825,-0.01169 -4.240501,-0.03171 -7.219269,-0.04446 z m -24.555972,-0.512 c -0.390245,-0.178854 -0.64478,-0.445266 -0.705762,-0.738702 l -0.05048,-0.242896 -0.198788,0.210092 c -0.254018,0.268458 -0.632091,0.273594 -1.598093,0.0217 -0.397362,-0.103619 -0.734081,-0.198029 -0.748265,-0.209806 -0.01419,-0.01175 0.02699,-0.212877 0.09149,-0.446888 0.07593,-0.275435 0.169444,-0.436282 0.265196,-0.456123 0.08135,-0.01686 0.439136,0.05695 0.795078,0.164093 0.79902,0.240447 1.036629,0.194405 1.205865,-0.233657 0.06807,-0.172176 0.105802,-0.332023 0.08385,-0.355221 -0.02196,-0.0232 -0.425221,-0.158851 -0.896156,-0.301456 -0.470937,-0.142604 -0.901392,-0.275242 -0.956569,-0.294759 -0.07626,-0.02699 -0.06925,-0.146796 0.02923,-0.499604 0.07125,-0.255276 0.139495,-0.475397 0.151649,-0.489169 0.03189,-0.03612 4.634392,1.391597 4.702001,1.458587 0.03113,0.03084 -0.06008,0.504329 -0.202693,1.052189 -0.332636,1.277855 -0.514039,1.502845 -1.207598,1.49779 -0.258701,-0.0019 -0.600684,-0.06316 -0.759962,-0.136157 z m 1.025257,-1.109074 c 0.288389,-0.483301 0.260668,-0.549862 -0.299204,-0.718413 -0.285651,-0.086 -0.579924,-0.174769 -0.653939,-0.197271 -0.181385,-0.05515 -0.354216,0.446255 -0.234983,0.681716 0.214516,0.423615 0.984486,0.575242 1.188126,0.233968 z m 47.165741,-0.07492 c -0.09821,-0.355805 -0.152216,-0.669864 -0.120012,-0.697919 0.163832,-0.142716 4.342528,-2.724405 4.366449,-2.697687 0.04207,0.047 0.296247,0.978333 0.272678,0.999201 -0.01123,0.0099 -0.237143,0.146315 -0.501984,0.30301 -0.264847,0.156699 -0.464719,0.331226 -0.444168,0.387833 0.02054,0.05658 0.101816,0.345657 0.180581,0.642337 l 0.143215,0.539416 0.582262,0.02556 0.582272,0.02556 0.111259,0.394312 c 0.06119,0.216875 0.111824,0.417908 0.112518,0.44674 5.88e-4,0.02884 -0.716959,0.07898 -1.594784,0.111428 -0.877824,0.03246 -2.02708,0.08334 -2.553891,0.113089 l -0.957837,0.05409 z m 2.522534,-0.393746 0.594128,-0.05639 -0.111723,-0.392341 c -0.06144,-0.215788 -0.130862,-0.412561 -0.154242,-0.437276 -0.04207,-0.04446 -1.348345,0.673177 -1.668483,0.916603 -0.149788,0.113897 -0.12173,0.12124 0.290187,0.07593 0.250809,-0.0276 0.72337,-0.07553 1.050133,-0.106536 z m -29.888376,0.468665 c 0.02635,-0.195928 0.03672,-0.197309 1.664,-0.220919 l 1.637502,-0.02375 v -0.21413 c 0,-0.122764 0.06912,-0.253225 0.161984,-0.305753 0.107505,-0.06081 1.39444,-0.08395 3.825736,-0.0688 l 3.663734,0.02282 0.153071,0.219064 c 0.08418,0.120481 0.17681,0.347213 0.205838,0.503844 l 0.05278,0.284779 h -5.695566 -5.695567 z m -3.455783,-1.779897 c -2.741616,-0.355097 -4.576429,-1.366031 -5.100758,-2.810385 -0.291111,-0.801905 -0.26764,-1.673622 0.06531,-2.425568 0.952572,-2.151338 4.222692,-3.797796 9.346841,-4.706006 1.679444,-0.297664 2.323756,-0.489966 3.120803,-0.931452 1.346092,-0.745596 2.064568,-1.9922821 2.088049,-3.6231211 0.0058,-0.4096509 -0.02183,-1.2401636 -0.06154,-1.8455872 -0.05342,-0.814135 -0.04489,-1.2248369 0.03277,-1.577253 0.137345,-0.6229763 0.600829,-1.5591472 0.947971,-1.9147406 l 0.275772,-0.2824859 0.0018,0.6851171 c 0.003,1.1580944 0.484005,2.2477572 1.585842,3.5914403 0.548937,0.6694359 2.103196,2.1321396 2.265592,2.1321396 0.18813,0 -0.196554,-1.2630202 -0.717894,-2.3570479 C 43.09735,5.6688104 42.979233,5.285193 42.951517,4.9596807 l -0.04178,-0.4907802 0.161943,0.2628811 c 0.262388,0.4259349 1.150527,1.26884 2.216221,2.1033504 2.241048,1.7549011 2.935996,2.9084765 2.612011,4.335788 -0.216921,0.955651 -1.412089,2.427725 -2.818243,3.471197 -0.318303,0.2362 -0.579344,0.453592 -0.580085,0.483083 -0.003,0.110999 1.060324,0.161089 1.698347,0.08002 1.216677,-0.154605 1.908131,-0.467892 2.5358,-1.148931 0.372005,-0.403644 0.737232,-1.168671 0.740474,-1.551045 5.89e-4,-0.08253 0.03236,-0.20189 0.07038,-0.26525 0.10331,-0.17217 0.260169,0.76882 0.259004,1.553719 -0.0036,2.282379 -1.246146,3.675214 -3.912042,4.384419 -2.706616,0.720034 -3.580793,1.667559 -3.09606,3.355824 l 0.119503,0.416218 h -0.206615 c -0.487565,0 -1.506412,-0.780989 -1.958992,-1.501652 -0.527825,-0.84048 -0.688349,-1.847677 -0.461379,-2.894841 0.05565,-0.256694 0.276225,-0.830998 0.490205,-1.276227 0.441923,-0.91952 0.430326,-0.923511 -0.525622,-0.180981 -1.710154,1.328339 -2.252503,2.766352 -1.580546,4.190723 0.147294,0.312211 0.491924,0.843682 0.765849,1.181039 0.273913,0.337357 0.49853,0.66267 0.499124,0.722908 5.89e-4,0.08392 -0.37214,0.109221 -1.594953,0.108195 -0.877826,-6.22e-4 -1.647268,-0.03563 -1.709873,-0.07755 -0.08055,-0.05391 -0.09877,-0.175204 -0.06235,-0.41488 0.160066,-1.052916 0.156506,-1.571097 -0.01318,-1.920878 -0.215951,-0.445161 -0.433861,-0.653375 -1.095794,-1.04704 -1.448607,-0.861521 -1.823025,-1.47019 -1.416768,-2.303177 0.189471,-0.388474 0.537543,-0.747226 1.209488,-1.246581 l 0.497472,-0.369695 -0.321385,0.06013 c -0.705151,0.131997 -1.791196,0.511443 -2.521892,0.881108 -1.744001,0.882312 -2.263776,2.070819 -1.365289,3.121882 0.165655,0.193789 0.471462,0.44419 0.679558,0.556458 0.971205,0.523928 1.580588,1.257393 1.580588,1.902437 0,0.402363 -0.193849,0.635187 -0.637188,0.765294 -0.431096,0.126512 -2.600316,0.101343 -3.715665,-0.04308 z M 14.134259,22.045479 c -0.170773,-0.07652 -0.310685,-0.18473 -0.310918,-0.240479 -2.49e-4,-0.05577 0.111508,-0.365019 0.248312,-0.687268 0.136804,-0.322247 0.248288,-0.631512 0.247743,-0.687268 -5.8e-4,-0.05577 -0.233733,-0.207778 -0.518196,-0.337848 l -0.517206,-0.236486 -0.276322,0.630749 c -0.151976,0.346913 -0.28939,0.644558 -0.305363,0.661439 -0.04486,0.04744 -0.612778,-0.165498 -0.660882,-0.247759 -0.02347,-0.0401 0.0693,-0.336655 0.206124,-0.658966 0.136831,-0.322309 0.248783,-0.621377 0.248783,-0.664604 0,-0.08535 -1.035034,-0.606082 -1.204683,-0.606082 -0.05715,0 -0.160551,0.147872 -0.229799,0.328597 -0.06925,0.180731 -0.203061,0.517137 -0.297367,0.747579 l -0.171465,0.418991 -0.333472,-0.179799 c -0.183409,-0.09889 -0.33347,-0.201083 -0.33347,-0.227098 0,-0.05789 0.918648,-2.344743 0.961692,-2.394018 0.02549,-0.02916 1.499458,0.639745 4.109431,1.865004 l 0.469536,0.220427 -0.474578,1.185447 c -0.261016,0.651988 -0.490961,1.199643 -0.51099,1.217003 -0.02003,0.01735 -0.176138,-0.03103 -0.34691,-0.107561 z m 45.246558,-0.908739 -0.279284,-0.632384 1.259931,-1.340593 c 0.781563,-0.8316 1.177795,-1.308297 1.043598,-1.255521 -0.118989,0.04682 -0.659986,0.320103 -1.202217,0.607364 -0.542231,0.28726 -1.126068,0.584195 -1.297419,0.659854 l -0.311531,0.137555 -0.201637,-0.420544 -0.201649,-0.420551 2.254322,-1.153452 2.25432,-1.153456 0.290192,0.623815 0.290186,0.623816 -1.368036,1.393251 c -0.756653,0.770586 -1.275405,1.357698 -1.160762,1.313708 0.114005,-0.04378 0.821445,-0.398969 1.572091,-0.78937 0.750658,-0.390401 1.386821,-0.709827 1.413707,-0.709827 0.0559,0 0.43398,0.796396 0.396633,0.835488 -0.01347,0.01411 -1.025465,0.540367 -2.248839,1.169449 l -2.224315,1.143781 z m -45.718433,-3.518432 -1.776224,-1.878734 0.143157,-0.334 c 0.07874,-0.183697 0.210572,-0.427918 0.292968,-0.542717 l 0.149812,-0.208718 2.418624,0.852027 2.418622,0.852026 -0.182773,0.320575 c -0.100525,0.17631 -0.223138,0.38491 -0.272472,0.463552 -0.08009,0.12767 -0.266526,0.07376 -1.740557,-0.50334 -0.907972,-0.355482 -1.663844,-0.632601 -1.679714,-0.615832 -0.01587,0.01679 0.149129,0.200125 0.366667,0.407451 0.217539,0.207324 0.801588,0.794704 1.297886,1.305287 l 0.902363,0.928338 -0.204085,0.389287 c -0.112247,0.214115 -0.238727,0.4015 -0.281067,0.416416 -0.04234,0.01492 -0.876285,-0.818313 -1.853207,-1.851618 z m 44.133252,0.191563 c -0.03471,-0.06025 -0.332969,-0.549582 -0.662821,-1.087424 l -0.599752,-0.977892 0.328505,-0.229747 0.328498,-0.229753 0.391613,0.658051 c 0.215387,0.361924 0.423925,0.658915 0.463419,0.659978 0.03947,0.0013 0.263352,-0.143487 0.497465,-0.321235 0.234119,-0.177739 0.43728,-0.331307 0.451464,-0.341249 0.01418,-0.0099 -0.14231,-0.295257 -0.347771,-0.634019 l -0.373569,-0.615937 0.280055,-0.225755 c 0.154029,-0.124162 0.301447,-0.225754 0.327592,-0.225754 0.02613,0 0.215145,0.27636 0.42,0.614135 l 0.372475,0.614134 0.580463,-0.407923 c 0.319259,-0.224361 0.580459,-0.431717 0.580453,-0.460792 0,-0.0291 -0.183052,-0.354791 -0.406768,-0.723815 l -0.406776,-0.670953 0.301,-0.226345 c 0.361745,-0.272015 0.291617,-0.335541 1.114109,1.009311 l 0.622791,1.018313 -2.042542,1.457102 c -1.123392,0.801407 -2.068251,1.457101 -2.099684,1.457101 -0.03142,0 -0.08553,-0.04931 -0.120219,-0.109532 z M 15.481148,14.57837 c -1.071631,-0.865283 -1.937618,-1.615717 -1.924417,-1.667629 0.04095,-0.161021 0.447362,-0.686989 0.530832,-0.686989 0.06134,0 3.59193,2.773123 3.910284,3.071364 0.0647,0.06062 -0.430998,0.87048 -0.526822,0.860725 -0.02281,-0.0025 -0.918245,-0.712182 -1.989877,-1.577471 z m 40.393806,0.328261 -0.260945,-0.384016 1.925852,-1.677005 1.92584,-1.676999 0.303488,0.373383 c 0.166921,0.20536 0.286045,0.403228 0.264712,0.439695 -0.06792,0.116154 -3.767415,3.308951 -3.834084,3.308951 -0.03518,0 -0.181351,-0.172805 -0.324863,-0.384009 z m -39.337121,-1.958876 -1.803764,-1.812875 0.43289,-0.463254 c 0.238091,-0.254792 0.460308,-0.463261 0.493818,-0.463261 0.03351,0 0.557127,0.241442 1.163594,0.536537 0.606466,0.295095 1.345183,0.649607 1.641591,0.787797 l 0.538926,0.251265 -1.285129,-1.307925 -1.285127,-1.3079182 0.285727,-0.3123179 c 0.157149,-0.1717786 0.325045,-0.311137 0.373101,-0.3096877 0.04806,0.00127 0.879911,0.8196497 1.848565,1.8182288 l 1.761192,1.815592 -0.434608,0.495817 -0.434606,0.495817 -1.512712,-0.727242 c -0.831991,-0.399982 -1.569248,-0.750167 -1.638348,-0.778191 -0.129648,-0.0526 1.850178,2.001511 2.125815,2.205559 0.08507,0.06297 0.154674,0.163677 0.154674,0.223784 0,0.101175 -0.499923,0.672072 -0.584328,0.667277 -0.02063,-0.0013 -0.849202,-0.817921 -1.841271,-1.815002 z m 37.876559,0.185974 -0.729719,-0.849017 0.03895,-0.428248 c 0.06824,-0.750559 0.720864,-1.429035 1.374588,-1.429035 h 0.387755 l -0.02777,-0.401027 c -0.02582,-0.3732402 0,-0.4339561 0.374982,-0.8762568 0.221505,-0.2613761 0.518969,-0.6194259 0.661021,-0.7956744 l 0.258287,-0.3204519 0.299494,0.3241449 c 0.164719,0.178282 0.299494,0.3751867 0.299494,0.4375689 0,0.06238 -0.218871,0.3564519 -0.48637,0.6534938 -0.642811,0.7137985 -0.713447,0.8632855 -0.558011,1.1809515 0.262871,0.537246 0.30659,0.523162 1.073961,-0.345963 l 0.711346,-0.8056663 0.324392,0.3863279 0.324392,0.3863224 -1.704336,1.840626 c -0.937381,1.012339 -1.746725,1.851941 -1.798532,1.865769 -0.05184,0.0138 -0.422566,-0.356906 -0.82391,-0.823865 z m 1.172588,-0.928891 c 0.240838,-0.251371 0.437898,-0.501568 0.437898,-0.555986 0,-0.170814 -0.316843,-0.410888 -0.542267,-0.410888 -0.286144,0 -0.784321,0.508246 -0.784321,0.800171 0,0.191121 0.281372,0.62374 0.405668,0.62374 0.02483,0 0.242179,-0.205665 0.483022,-0.457037 z M 27.54644,12.558456 C 27.626867,12.04812 27.810328,11.568164 28.128883,11.0347 28.774718,9.953175 29.406693,9.4436612 31.26444,8.5067691 32.368565,7.9499369 32.652886,7.7642498 33.115217,7.2980174 33.415658,6.9950439 33.730153,6.5894338 33.81412,6.3966586 33.983622,6.0074641 34.016233,5.2111493 33.885879,4.6441517 33.573039,3.2833637 33.633472,2.297911 34.090073,1.3143854 34.246691,0.97702836 34.529247,0.54327693 34.71797,0.35050171 L 35.0611,0 35.005557,0.31964319 c -0.106882,0.61540873 0.09411,1.21950791 0.846996,2.54567561 0.846478,1.4910063 1.149014,2.20761 1.284459,3.0423381 0.194783,1.2005068 -0.166656,2.3670023 -1.010551,3.2614152 -0.78361,0.8305194 -1.591213,1.1622669 -3.814311,1.5668509 -2.177215,0.396234 -2.884749,0.680342 -4.135843,1.660715 l -0.689554,0.540342 z m -1.310157,-0.92618 C 25.915832,10.372079 25.989738,9.5223467 26.519326,8.3779179 26.923037,7.5055158 27.698539,6.6246826 28.665936,5.939747 29.32827,5.4708093 29.863876,4.90896 29.994361,4.5462346 30.287671,3.7309178 29.867659,2.5546233 28.951105,1.6244647 l -0.545326,-0.5534173 0.564435,0.042966 c 1.293682,0.098527 2.587708,1.3288418 2.970797,2.8245179 0.25631,1.0007549 0.01023,1.9501754 -0.664528,2.5639128 -0.182786,0.1662563 -0.686782,0.4808626 -1.119998,0.6991185 -0.999437,0.5035264 -1.680755,1.0156713 -2.277523,1.7119928 -0.564294,0.6584234 -1.170736,1.8964106 -1.310321,2.6748876 -0.05401,0.301212 -0.122061,0.547659 -0.151219,0.547659 -0.02918,0 -0.11067,-0.22673 -0.181139,-0.503849 z M 19.916914,10.160694 C 18.462786,8.1497259 18.345121,7.8391233 18.739139,7.0516625 c 0.276857,-0.5533118 0.870613,-0.9616941 1.398224,-0.9616941 0.795521,0 0.712407,-0.089138 3.318407,3.559221 0.04485,0.062794 -0.06258,0.2128459 -0.29903,0.4176096 l -0.369042,0.319599 -1.092194,-1.5129302 c -1.160075,-1.6069631 -1.42709,-1.9061119 -1.701953,-1.9068083 -0.235711,-6.153e-4 -0.53265,0.3550904 -0.53265,0.6380295 0,0.2301132 0.147947,0.4542636 1.756701,2.661545 l 0.648895,0.890314 -0.3115,0.256016 c -0.171325,0.140815 -0.34881,0.277935 -0.39441,0.304708 -0.04561,0.0268 -0.605254,-0.673688 -1.243673,-1.556578 z m 32.061658,0.682561 C 51.55373,10.602459 51.141654,10.127447 51.036827,9.7576952 50.863629,9.146713 51.123357,8.5275294 52.130649,7.1500777 c 0.917814,-1.25508 1.542987,-1.5660803 2.3133,-1.1507585 0.388703,0.2095766 0.881768,0.7992683 0.944207,1.1292638 0.113547,0.5999951 -0.167092,1.2194269 -1.210612,2.6721201 -0.791794,1.1022479 -1.500685,1.4383429 -2.198972,1.0425519 z M 52.901357,9.7822988 C 53.268374,9.4203997 54.181473,8.0862303 54.369374,7.6373075 54.500323,7.3244367 54.519085,7.1911585 54.451101,7.0568986 54.319892,6.7978042 54.079955,6.6896217 53.845478,6.783839 53.588027,6.8872843 52.98755,7.6089358 52.417756,8.4996683 c -0.573425,0.8964081 -0.62285,1.1017185 -0.337741,1.4030375 0.253463,0.2678672 0.457977,0.2378852 0.821346,-0.120407 z"
     id="path976"
     inkscape:connector-curvature="0" /></svg>
